HIERARCHY
ROOT Hips
{
  OFFSET 74.0196 97.4445 -31.1285
  CHANNELS 6 Xposition Yposition Zposition Zrotation Xrotation Yrotation
  JOINT RightUpLeg
  {
    OFFSET -8.9458 -8.66707 0.101652
    CHANNELS 3 Zrotation Xrotation Yrotation
    JOINT RightLeg
    {
      OFFSET -2.94875e-013 -44.4227 1.3727
      CHANNELS 3 Zrotation Xrotation Yrotation
      JOINT RightFoot
      {
        OFFSET 0.253549 -42.0924 -1.46059
        CHANNELS 3 Zrotation Xrotation Yrotation
        JOINT RightToes
        {
          OFFSET 0.04 -4.41509 8.4991
          CHANNELS 3 Zrotation Xrotation Yrotation
          End Site
          {
            OFFSET -0.08 -0.137448 9.77979
          }
        }
      }
    }
  }
  JOINT Spine
  {
    OFFSET -5.68434e-014 11.8905 -6.39488e-014
    CHANNELS 3 Zrotation Xrotation Yrotation
    JOINT Spine1
    {
      OFFSET 5.68434e-014 25.6574 0.127663
      CHANNELS 3 Zrotation Xrotation Yrotation
      JOINT HEad
      {
        OFFSET 4.26326e-014 8.73416 0.011341
        CHANNELS 3 Zrotation Xrotation Yrotation
        End Site
        {
          OFFSET -0.29 12.7742 2.51395
        }
      }
      JOINT LeftShoulder1
      {
        OFFSET 8.99 -0.362252 -0.22
        CHANNELS 3 Zrotation Xrotation Yrotation
        JOINT LeftArm
        {
          OFFSET 10.2827 -0.00338 0.322123
          CHANNELS 3 Zrotation Xrotation Yrotation
          JOINT LeftForeArm
          {
            OFFSET 32.7669 0.099144 -1.42434
            CHANNELS 3 Zrotation Xrotation Yrotation
            JOINT LeftHand
            {
              OFFSET 27.5643 0.085362 1.02216
              CHANNELS 3 Zrotation Xrotation Yrotation
              End Site
              {
                OFFSET 16.7443 -0.6 1.50291
              }
            }
          }
        }
      }
      JOINT RightShoulder
      {
        OFFSET -8.99 -0.362252 -0.22
        CHANNELS 3 Zrotation Xrotation Yrotation
        JOINT RightArm
        {
          OFFSET -10.2827 -0.00338 0.322123
          CHANNELS 3 Zrotation Xrotation Yrotation
          JOINT RightForeArm
          {
            OFFSET -32.8971 0.099144 -1.42434
            CHANNELS 3 Zrotation Xrotation Yrotation
            JOINT RightHand
            {
              OFFSET -27.4921 0.085362 1.02216
              CHANNELS 3 Zrotation Xrotation Yrotation
              End Site
              {
                OFFSET -16.6312 -0.6 1.50291
              }
            }
          }
        }
      }
    }
  }
  JOINT LeftUpLeg
  {
    OFFSET 8.9458 -8.66707 0.101652
    CHANNELS 3 Zrotation Xrotation Yrotation
    JOINT LeftLeg
    {
      OFFSET 7.10543e-014 -44.4227 1.3727
      CHANNELS 3 Zrotation Xrotation Yrotation
      JOINT LeftFoot
      {
        OFFSET -0.253549 -42.0924 -1.46059
        CHANNELS 3 Zrotation Xrotation Yrotation
        JOINT LeftToes
        {
          OFFSET -0.04 -4.41509 8.4991
          CHANNELS 3 Zrotation Xrotation Yrotation
          End Site
          {
            OFFSET 0.08 -0.047448 9.77979
          }
        }
      }
    }
  }
}
MOTION
Frames:	10
Frame Time:	0.0166667
21.5369 85.7796 -200.543 -7.94281 -2.00435 -47.4912 -5.4597 5.02552 0.920356 13.0581 49.3873 -21.616 0.698348 -2.28609 -0.169285 -27.9874 -36.1664 -18.2781 -1.62766 9.09755 5.3367 -3.07663 17.786 11.6483 -6.39793 -4.90731 1.64246 -5.03302e-021 -3.88251e-019 1.21329e-020 -75.3353 -35.1943 -34.3047 -14.4781 41.8587 -96.7335 27.7729 1.15622 -31.0016 14.5984 4.33492 22.1789 70.2332 -24.3852 32.3371 -19.2832 29.9644 147.385 -10.6099 13.9785 -49.9617 5.29708 -30.1662 -0.253142 21.9291 33.2579 -35.3867 -14.7798 2.27738 1.25788 12.0043 -17.7517 -5.5117 
21.7313 85.0723 -200.449 -9.09368 -3.09871 -47.93 -5.2956 7.81926 1.47924 13.1095 47.8695 -23.5675 -0.104697 -4.16287 -0.145514 -28.5222 -35.859 -20.4508 -1.22147 9.07719 5.79968 -2.62661 17.8683 12.5909 -6.26304 -3.68411 0.53794 -5.03302e-021 -3.88251e-019 1.21329e-020 -73.5922 -33.6164 -31.8032 -17.5805 40.9596 -94.1144 25.1194 1.48268 -33.3553 14.4918 4.12294 21.1231 70.1456 -23.2477 31.4057 -19.1108 28.593 147.463 -9.67151 13.6619 -50.7403 4.50375 -29.6228 -1.61425 23.1689 35.5486 -34.893 -14.9864 1.99919 1.24142 12.8731 -19.2257 -6.05518 
22.024 84.3111 -200.362 -10.2394 -4.05765 -48.4797 -5.24531 10.3998 1.91429 12.8234 46.4339 -24.8298 -0.895384 -6.30191 -0.152107 -29.2479 -35.9712 -22.05 -0.767777 9.08616 6.22805 -2.08596 18.0145 13.4741 -6.13072 -2.88748 -0.472194 -5.03302e-021 -3.88251e-019 1.21329e-020 -71.5849 -32.3546 -29.7427 -20.6935 39.9997 -91.3925 22.1253 2.06079 -35.6513 14.3364 3.92027 20.1591 70.2487 -22.5833 31.0959 -19.0066 27.7494 147.495 -9.0304 13.4311 -51.198 3.86766 -29.24 -2.87012 24.2698 37.9252 -34.4147 -15.059 1.69674 1.20976 13.6403 -20.5031 -6.42497 
22.4327 83.535 -200.264 -11.3659 -4.79013 -49.1643 -5.34692 12.6537 2.18671 12.3085 45.1498 -25.2542 -1.68108 -8.18068 -0.182926 -30.3632 -36.6702 -23.1175 -0.250057 9.08076 6.57064 -1.40366 18.1404 14.1846 -6.08679 -2.43882 -1.18619 -5.03302e-021 -3.88251e-019 1.21329e-020 -69.0129 -31.4369 -27.7473 -23.633 38.8826 -88.7628 18.7929 2.91834 -37.8232 14.24 3.78473 19.4955 70.3316 -22.5645 31.2468 -18.9447 27.5424 147.469 -8.71076 13.3031 -51.2921 3.48385 -29.0611 -3.91347 25.1741 40.3238 -33.9725 -14.9041 1.37176 1.15665 14.2803 -21.5089 -6.57026 
22.9667 82.7953 -200.136 -12.461 -5.21123 -50.017 -5.61662 14.4853 2.28036 11.6624 44.0167 -24.8098 -2.49661 -9.38751 -0.221286 -32.0309 -37.97 -23.9772 0.353981 9.04098 6.80505 -0.537505 18.2096 14.6693 -6.19848 -2.28125 -1.49466 -5.03302e-021 -3.88251e-019 1.21329e-020 -65.7416 -30.9077 -25.5119 -26.2775 37.6283 -86.3521 15.1427 4.06521 -39.8029 14.2453 3.73383 19.1989 70.2971 -23.1823 31.7388 -18.9051 27.9521 147.388 -8.67275 13.268 -51.0561 3.45474 -29.0988 -4.6374 25.8213 42.6601 -33.5453 -14.4609 1.03562 1.08086 14.7743 -22.2009 -6.48666 
23.6249 82.1475 -199.959 -13.5044 -5.26061 -51.0817 -6.03971 15.8199 2.21382 10.9439 43.0033 -23.5681 -3.31423 -9.75807 -0.247099 -34.2498 -39.7155 -24.9293 1.05318 8.97293 6.94078 0.521273 18.2331 14.9417 -6.47859 -2.3895 -1.39198 -5.03302e-021 -3.88251e-019 1.21329e-020 -61.7595 -30.8542 -22.8135 -28.5947 36.3472 -84.1644 11.2162 5.48469 -41.5558 14.3433 3.75209 19.1966 70.1497 -24.255 32.491 -18.8691 28.8457 147.257 -8.84466 13.3014 -50.5761 3.8727 -29.3329 -4.95711 26.1321 44.8513 -33.054 -13.7182 0.695657 0.985109 15.0985 -22.5508 -6.20449 
24.397 81.645 -199.717 -14.4595 -4.91607 -52.4083 -6.56638 16.604 2.03826 10.1497 42.0799 -21.6441 -4.01269 -9.39135 -0.244592 -36.797 -41.6367 -26.0213 1.83024 8.89734 7.00167 1.73591 18.2446 15.0456 -6.86905 -2.74619 -0.926197 -5.03302e-021 -3.88251e-019 1.21329e-020 -57.0787 -31.4106 -19.4583 -30.6492 35.1591 -82.066 7.05686 7.14298 -43.1225 14.5022 3.81004 19.3527 69.9515 -25.5013 33.4241 -18.8112 30.0368 147.071 -9.16184 13.3816 -49.957 4.8004 -29.7108 -4.82958 25.9925 46.8277 -32.3546 -12.7196 0.349997 0.875159 15.2183 -22.5314 -5.7713 
25.267 81.3343 -199.402 -15.27 -4.1974 -54.0403 -7.11803 16.8055 1.82314 9.21369 41.2261 -19.1375 -4.42133 -8.56931 -0.213263 -39.2449 -43.4363 -27.0078 2.64273 8.83649 7.0067 3.02641 18.276 15.0171 -7.25031 -3.31757 -0.150685 -5.03302e-021 -3.88251e-019 1.21329e-020 -51.6555 -32.7028 -15.256 -32.5902 34.1118 -79.7833 2.71631 9.00342 -44.6107 14.6882 3.87924 19.5396 69.778 -26.6359 34.4367 -18.701 31.3468 146.82 -9.58853 13.4985 -49.2925 6.25387 -30.154 -4.26482 25.2493 48.5278 -31.2457 -11.5538 -0.00163915 0.759525 15.0988 -22.1217 -5.23712 
26.2195 81.2523 -199.015 -15.8646 -3.16114 -55.9978 -7.60609 16.4171 1.63403 8.03745 40.417 -16.1141 -4.39288 -7.6283 -0.170341 -41.0601 -44.868 -27.4654 3.4342 8.80505 6.95976 4.28517 18.343 14.867 -7.47326 -4.04197 0.898771 -5.03302e-021 -3.88251e-019 1.21329e-020 -45.3724 -34.7245 -10.0519 -34.6113 33.1135 -76.9232 -1.71989 11.0296 -46.1247 14.8778 3.94071 19.6761 69.6794 -27.4418 35.4026 -18.5116 32.6313 146.499 -10.1092 13.6498 -48.6509 8.19016 -30.5711 -3.32801 23.7339 49.8805 -29.5037 -10.3335 -0.340662 0.648767 14.72 -21.3237 -4.64583 
27.244 81.4214 -198.566 -16.1679 -1.88945 -58.2637 -7.95881 15.461 1.51055 6.54106 39.6019 -12.6337 -3.85452 -6.83342 -0.13827 -41.7712 -45.7675 -26.9888 4.14762 8.80666 6.85082 5.40216 18.4411 14.5817 -7.40697 -4.83221 2.20304 -5.03302e-021 -3.88251e-019 1.21329e-020 -38.1251 -37.2026 -3.82529 -36.8566 31.8855 -73.0716 -6.11897 13.1689 -47.6454 15.0626 3.98748 19.7346 69.6504 -27.8023 36.1904 -18.2352 33.7669 146.11 -10.6991 13.8287 -48.079 10.503 -30.8795 -2.13098 21.3235 50.7881 -26.9496 -9.16849 -0.62288 0.552961 14.0848 -20.1681 -4.03068 
